STARTFONT 2.1
FONT -FontForge-Fredoka One-Book-R-Normal--8-80-72-72-P-46-ISO10646-1
SIZE 8 72 72
FONTBOUNDINGBOX 10 10 -1 -2
COMMENT "Generated by fontforge, http://fontforge.sourceforge.net"
COMMENT "Copyright (c) 2011 Milena B Brandao (milenabbrandao@gmail.com), with Reserved Font Name "Fredoka""
STARTPROPERTIES 39
FOUNDRY "FontForge"
FAMILY_NAME "Fredoka One"
WEIGHT_NAME "Book"
SLANT "R"
SETWIDTH_NAME "Normal"
ADD_STYLE_NAME ""
PIXEL_SIZE 8
POINT_SIZE 80
RESOLUTION_X 72
RESOLUTION_Y 72
SPACING "P"
AVERAGE_WIDTH 46
CHARSET_REGISTRY "ISO10646"
CHARSET_ENCODING "1"
FONTNAME_REGISTRY ""
CHARSET_COLLECTIONS "ISO10646-1"
FONT_NAME "FredokaOne-Regular"
FACE_NAME "Fredoka One"
COPYRIGHT "Copyright (c) 2011 Milena B Brandao (milenabbrandao@gmail.com), with Reserved Font Name "Fredoka""
FONT_VERSION "1.001"
FONT_ASCENT 6
FONT_DESCENT 2
UNDERLINE_POSITION -1
UNDERLINE_THICKNESS 1
X_HEIGHT 3
CAP_HEIGHT 5
RAW_ASCENT 800
RAW_DESCENT 200
NORM_SPACE 2
RELATIVE_WEIGHT 40
RELATIVE_SETWIDTH 50
SUPERSCRIPT_X 0
SUPERSCRIPT_Y 3
SUPERSCRIPT_SIZE 5
SUBSCRIPT_X 0
SUBSCRIPT_Y 1
SUBSCRIPT_SIZE 5
AVG_LOWERCASE_WIDTH 47
AVG_UPPERCASE_WIDTH 54
ENDPROPERTIES
CHARS 235
STARTCHAR space
ENCODING 32
SWIDTH 253 0
DWIDTH 2 0
BBX 1 1 0 0
BITMAP
00
ENDCHAR
STARTCHAR exclam
ENCODING 33
SWIDTH 267 0
DWIDTH 2 0
BBX 2 6 0 0
BITMAP
C0
C0
C0
C0
00
C0
ENDCHAR
STARTCHAR quotedbl
ENCODING 34
SWIDTH 429 0
DWIDTH 3 0
BBX 3 3 0 3
BITMAP
A0
A0
A0
ENDCHAR
STARTCHAR numbersign
ENCODING 35
SWIDTH 749 0
DWIDTH 6 0
BBX 6 6 0 0
BITMAP
28
28
FC
48
FC
50
ENDCHAR
STARTCHAR dollar
ENCODING 36
SWIDTH 475 0
DWIDTH 4 0
BBX 4 7 0 -1
BITMAP
40
E0
C0
70
F0
60
40
ENDCHAR
STARTCHAR percent
ENCODING 37
SWIDTH 838 0
DWIDTH 7 0
BBX 6 6 0 0
BITMAP
68
A8
70
1C
2C
6C
ENDCHAR
STARTCHAR ampersand
ENCODING 38
SWIDTH 748 0
DWIDTH 6 0
BBX 6 6 0 0
BITMAP
70
50
70
E8
F8
7C
ENDCHAR
STARTCHAR quotesingle
ENCODING 39
SWIDTH 208 0
DWIDTH 2 0
BBX 1 3 0 3
BITMAP
80
80
80
ENDCHAR
STARTCHAR parenleft
ENCODING 40
SWIDTH 384 0
DWIDTH 3 0
BBX 3 8 0 -2
BITMAP
60
40
C0
80
80
C0
40
20
ENDCHAR
STARTCHAR parenright
ENCODING 41
SWIDTH 384 0
DWIDTH 3 0
BBX 3 8 0 -2
BITMAP
C0
40
20
20
20
60
40
C0
ENDCHAR
STARTCHAR asterisk
ENCODING 42
SWIDTH 503 0
DWIDTH 4 0
BBX 4 4 0 2
BITMAP
60
F0
60
60
ENDCHAR
STARTCHAR plus
ENCODING 43
SWIDTH 527 0
DWIDTH 4 0
BBX 4 4 0 0
BITMAP
60
F0
60
20
ENDCHAR
STARTCHAR comma
ENCODING 44
SWIDTH 238 0
DWIDTH 2 0
BBX 2 2 0 -1
BITMAP
C0
80
ENDCHAR
STARTCHAR hyphen
ENCODING 45
SWIDTH 433 0
DWIDTH 3 0
BBX 3 1 0 1
BITMAP
E0
ENDCHAR
STARTCHAR period
ENCODING 46
SWIDTH 237 0
DWIDTH 2 0
BBX 2 1 0 0
BITMAP
C0
ENDCHAR
STARTCHAR slash
ENCODING 47
SWIDTH 526 0
DWIDTH 4 0
BBX 4 6 0 0
BITMAP
10
30
20
60
40
C0
ENDCHAR
STARTCHAR zero
ENCODING 48
SWIDTH 608 0
DWIDTH 5 0
BBX 5 6 0 0
BITMAP
70
D0
D8
D8
D0
70
ENDCHAR
STARTCHAR one
ENCODING 49
SWIDTH 407 0
DWIDTH 3 0
BBX 3 6 0 0
BITMAP
20
E0
A0
20
20
20
ENDCHAR
STARTCHAR two
ENCODING 50
SWIDTH 609 0
DWIDTH 5 0
BBX 5 6 0 0
BITMAP
70
D0
D8
30
E0
F8
ENDCHAR
STARTCHAR three
ENCODING 51
SWIDTH 608 0
DWIDTH 5 0
BBX 5 6 0 0
BITMAP
70
D8
30
30
D8
70
ENDCHAR
STARTCHAR four
ENCODING 52
SWIDTH 592 0
DWIDTH 5 0
BBX 4 6 0 0
BITMAP
50
50
D0
F0
10
10
ENDCHAR
STARTCHAR five
ENCODING 53
SWIDTH 530 0
DWIDTH 4 0
BBX 4 6 0 0
BITMAP
70
F0
E0
F0
B0
E0
ENDCHAR
STARTCHAR six
ENCODING 54
SWIDTH 560 0
DWIDTH 4 0
BBX 4 6 0 0
BITMAP
30
70
C0
F0
D0
70
ENDCHAR
STARTCHAR seven
ENCODING 55
SWIDTH 561 0
DWIDTH 4 0
BBX 4 6 0 0
BITMAP
F0
F0
30
60
60
40
ENDCHAR
STARTCHAR eight
ENCODING 56
SWIDTH 582 0
DWIDTH 5 0
BBX 4 6 0 0
BITMAP
70
D0
70
F0
D0
70
ENDCHAR
STARTCHAR nine
ENCODING 57
SWIDTH 560 0
DWIDTH 4 0
BBX 4 6 0 0
BITMAP
70
D0
F0
70
30
E0
ENDCHAR
STARTCHAR colon
ENCODING 58
SWIDTH 238 0
DWIDTH 2 0
BBX 2 4 0 0
BITMAP
C0
00
00
C0
ENDCHAR
STARTCHAR semicolon
ENCODING 59
SWIDTH 237 0
DWIDTH 2 0
BBX 2 5 0 -1
BITMAP
C0
00
00
C0
80
ENDCHAR
STARTCHAR less
ENCODING 60
SWIDTH 627 0
DWIDTH 5 0
BBX 5 6 0 0
BITMAP
08
38
60
C0
30
18
ENDCHAR
STARTCHAR equal
ENCODING 61
SWIDTH 478 0
DWIDTH 4 0
BBX 4 3 0 0
BITMAP
F0
E0
F0
ENDCHAR
STARTCHAR greater
ENCODING 62
SWIDTH 627 0
DWIDTH 5 0
BBX 5 6 0 0
BITMAP
80
E0
30
18
60
C0
ENDCHAR
STARTCHAR question
ENCODING 63
SWIDTH 512 0
DWIDTH 4 0
BBX 4 6 0 0
BITMAP
60
90
30
60
00
60
ENDCHAR
STARTCHAR at
ENCODING 64
SWIDTH 908 0
DWIDTH 7 0
BBX 7 6 0 -1
BITMAP
7C
DA
AA
BA
4E
70
ENDCHAR
STARTCHAR A
ENCODING 65
SWIDTH 765 0
DWIDTH 6 0
BBX 6 6 0 0
BITMAP
30
30
78
68
7C
C4
ENDCHAR
STARTCHAR B
ENCODING 66
SWIDTH 646 0
DWIDTH 5 0
BBX 5 6 0 0
BITMAP
F0
F8
F8
D8
D8
F0
ENDCHAR
STARTCHAR C
ENCODING 67
SWIDTH 679 0
DWIDTH 5 0
BBX 5 6 0 0
BITMAP
38
78
C0
C0
68
78
ENDCHAR
STARTCHAR D
ENCODING 68
SWIDTH 704 0
DWIDTH 6 0
BBX 5 6 0 0
BITMAP
F0
F8
C8
C8
D8
F0
ENDCHAR
STARTCHAR E
ENCODING 69
SWIDTH 638 0
DWIDTH 5 0
BBX 5 6 0 0
BITMAP
F8
F8
F0
F0
C0
F8
ENDCHAR
STARTCHAR F
ENCODING 70
SWIDTH 637 0
DWIDTH 5 0
BBX 5 6 0 0
BITMAP
F8
F8
F0
F0
C0
C0
ENDCHAR
STARTCHAR G
ENCODING 71
SWIDTH 714 0
DWIDTH 6 0
BBX 5 6 0 0
BITMAP
38
68
D8
D8
68
78
ENDCHAR
STARTCHAR H
ENCODING 72
SWIDTH 699 0
DWIDTH 6 0
BBX 5 6 0 0
BITMAP
C8
C8
F8
F8
C8
C8
ENDCHAR
STARTCHAR I
ENCODING 73
SWIDTH 257 0
DWIDTH 2 0
BBX 2 6 0 0
BITMAP
C0
C0
C0
C0
C0
C0
ENDCHAR
STARTCHAR J
ENCODING 74
SWIDTH 549 0
DWIDTH 4 0
BBX 4 6 0 0
BITMAP
10
10
10
10
F0
E0
ENDCHAR
STARTCHAR K
ENCODING 75
SWIDTH 639 0
DWIDTH 5 0
BBX 5 6 0 0
BITMAP
D8
D0
E0
E0
F0
D8
ENDCHAR
STARTCHAR L
ENCODING 76
SWIDTH 587 0
DWIDTH 5 0
BBX 5 6 0 0
BITMAP
C0
C0
C0
C0
C0
F8
ENDCHAR
STARTCHAR M
ENCODING 77
SWIDTH 870 0
DWIDTH 7 0
BBX 7 6 0 0
BITMAP
C6
EE
EE
FE
C6
C6
ENDCHAR
STARTCHAR N
ENCODING 78
SWIDTH 720 0
DWIDTH 6 0
BBX 5 6 0 0
BITMAP
C8
E8
E8
F8
D8
C8
ENDCHAR
STARTCHAR O
ENCODING 79
SWIDTH 775 0
DWIDTH 6 0
BBX 6 6 0 0
BITMAP
38
7C
CC
C4
4C
78
ENDCHAR
STARTCHAR P
ENCODING 80
SWIDTH 632 0
DWIDTH 5 0
BBX 5 6 0 0
BITMAP
F0
F8
D8
F0
C0
C0
ENDCHAR
STARTCHAR Q
ENCODING 81
SWIDTH 830 0
DWIDTH 7 0
BBX 7 6 0 0
BITMAP
38
7C
CC
C4
4C
7E
ENDCHAR
STARTCHAR R
ENCODING 82
SWIDTH 631 0
DWIDTH 5 0
BBX 5 6 0 0
BITMAP
F0
F8
D8
F0
D8
D8
ENDCHAR
STARTCHAR S
ENCODING 83
SWIDTH 583 0
DWIDTH 5 0
BBX 4 6 0 0
BITMAP
70
D0
E0
30
D0
70
ENDCHAR
STARTCHAR T
ENCODING 84
SWIDTH 731 0
DWIDTH 6 0
BBX 6 6 0 0
BITMAP
FC
30
30
30
30
30
ENDCHAR
STARTCHAR U
ENCODING 85
SWIDTH 726 0
DWIDTH 6 0
BBX 5 6 0 0
BITMAP
C8
C8
C8
C8
48
78
ENDCHAR
STARTCHAR V
ENCODING 86
SWIDTH 783 0
DWIDTH 6 0
BBX 6 6 0 0
BITMAP
C4
CC
48
78
30
30
ENDCHAR
STARTCHAR W
ENCODING 87
SWIDTH 999 0
DWIDTH 8 0
BBX 8 6 0 0
BITMAP
DB
DB
5A
7E
66
24
ENDCHAR
STARTCHAR X
ENCODING 88
SWIDTH 741 0
DWIDTH 6 0
BBX 6 6 0 0
BITMAP
CC
58
30
30
78
CC
ENDCHAR
STARTCHAR Y
ENCODING 89
SWIDTH 686 0
DWIDTH 5 0
BBX 5 6 0 0
BITMAP
C8
D8
70
30
20
20
ENDCHAR
STARTCHAR Z
ENCODING 90
SWIDTH 643 0
DWIDTH 5 0
BBX 5 6 0 0
BITMAP
F8
78
30
60
40
F8
ENDCHAR
STARTCHAR bracketleft
ENCODING 91
SWIDTH 348 0
DWIDTH 3 0
BBX 3 8 0 -2
BITMAP
E0
C0
C0
C0
C0
C0
C0
E0
ENDCHAR
STARTCHAR backslash
ENCODING 92
SWIDTH 528 0
DWIDTH 4 0
BBX 4 6 0 0
BITMAP
C0
40
60
20
30
10
ENDCHAR
STARTCHAR bracketright
ENCODING 93
SWIDTH 348 0
DWIDTH 3 0
BBX 2 8 0 -2
BITMAP
C0
40
40
40
40
40
40
C0
ENDCHAR
STARTCHAR asciicircum
ENCODING 94
SWIDTH 526 0
DWIDTH 4 0
BBX 4 2 0 2
BITMAP
60
D0
ENDCHAR
STARTCHAR underscore
ENCODING 95
SWIDTH 826 0
DWIDTH 7 0
BBX 6 1 0 -2
BITMAP
FC
ENDCHAR
STARTCHAR grave
ENCODING 96
SWIDTH 482 0
DWIDTH 4 0
BBX 2 1 1 5
BITMAP
C0
ENDCHAR
STARTCHAR a
ENCODING 97
SWIDTH 596 0
DWIDTH 5 0
BBX 4 4 0 0
BITMAP
70
D0
D0
70
ENDCHAR
STARTCHAR b
ENCODING 98
SWIDTH 592 0
DWIDTH 5 0
BBX 5 6 0 0
BITMAP
C0
C0
F0
D8
D0
F0
ENDCHAR
STARTCHAR c
ENCODING 99
SWIDTH 517 0
DWIDTH 4 0
BBX 4 4 0 0
BITMAP
70
C0
D0
70
ENDCHAR
STARTCHAR d
ENCODING 100
SWIDTH 598 0
DWIDTH 5 0
BBX 4 6 0 0
BITMAP
10
10
70
D0
D0
70
ENDCHAR
STARTCHAR e
ENCODING 101
SWIDTH 573 0
DWIDTH 5 0
BBX 4 4 0 0
BITMAP
70
F0
C0
70
ENDCHAR
STARTCHAR f
ENCODING 102
SWIDTH 450 0
DWIDTH 4 0
BBX 3 6 0 0
BITMAP
60
40
E0
40
40
40
ENDCHAR
STARTCHAR g
ENCODING 103
SWIDTH 585 0
DWIDTH 5 0
BBX 4 6 0 -2
BITMAP
70
D0
F0
70
70
60
ENDCHAR
STARTCHAR h
ENCODING 104
SWIDTH 605 0
DWIDTH 5 0
BBX 5 6 0 0
BITMAP
C0
C0
F0
D0
D8
D8
ENDCHAR
STARTCHAR i
ENCODING 105
SWIDTH 255 0
DWIDTH 2 0
BBX 2 6 0 0
BITMAP
C0
00
C0
C0
C0
C0
ENDCHAR
STARTCHAR j
ENCODING 106
SWIDTH 252 0
DWIDTH 2 0
BBX 3 8 -1 -2
BITMAP
60
00
60
60
60
60
E0
C0
ENDCHAR
STARTCHAR k
ENCODING 107
SWIDTH 536 0
DWIDTH 4 0
BBX 4 6 0 0
BITMAP
C0
C0
F0
E0
F0
D0
ENDCHAR
STARTCHAR l
ENCODING 108
SWIDTH 327 0
DWIDTH 3 0
BBX 3 6 0 0
BITMAP
C0
C0
C0
C0
C0
60
ENDCHAR
STARTCHAR m
ENCODING 109
SWIDTH 851 0
DWIDTH 7 0
BBX 6 4 0 0
BITMAP
FC
D4
D4
D4
ENDCHAR
STARTCHAR n
ENCODING 110
SWIDTH 606 0
DWIDTH 5 0
BBX 5 4 0 0
BITMAP
F0
D8
D8
D8
ENDCHAR
STARTCHAR o
ENCODING 111
SWIDTH 600 0
DWIDTH 5 0
BBX 5 4 0 0
BITMAP
70
D8
D8
70
ENDCHAR
STARTCHAR p
ENCODING 112
SWIDTH 582 0
DWIDTH 5 0
BBX 4 6 0 -2
BITMAP
F0
D0
D0
F0
C0
C0
ENDCHAR
STARTCHAR q
ENCODING 113
SWIDTH 582 0
DWIDTH 5 0
BBX 4 6 0 -2
BITMAP
70
D0
F0
70
10
10
ENDCHAR
STARTCHAR r
ENCODING 114
SWIDTH 457 0
DWIDTH 4 0
BBX 4 4 0 0
BITMAP
F0
C0
C0
C0
ENDCHAR
STARTCHAR s
ENCODING 115
SWIDTH 489 0
DWIDTH 4 0
BBX 4 4 0 0
BITMAP
F0
E0
30
E0
ENDCHAR
STARTCHAR t
ENCODING 116
SWIDTH 449 0
DWIDTH 4 0
BBX 3 6 0 0
BITMAP
40
40
E0
40
40
60
ENDCHAR
STARTCHAR u
ENCODING 117
SWIDTH 606 0
DWIDTH 5 0
BBX 5 4 0 0
BITMAP
D8
D8
D8
78
ENDCHAR
STARTCHAR v
ENCODING 118
SWIDTH 638 0
DWIDTH 5 0
BBX 5 4 0 0
BITMAP
D8
50
70
20
ENDCHAR
STARTCHAR w
ENCODING 119
SWIDTH 793 0
DWIDTH 6 0
BBX 6 4 0 0
BITMAP
F4
7C
78
68
ENDCHAR
STARTCHAR x
ENCODING 120
SWIDTH 567 0
DWIDTH 5 0
BBX 4 4 0 0
BITMAP
D0
70
70
D0
ENDCHAR
STARTCHAR y
ENCODING 121
SWIDTH 604 0
DWIDTH 5 0
BBX 5 6 0 -2
BITMAP
D8
50
70
20
60
40
ENDCHAR
STARTCHAR z
ENCODING 122
SWIDTH 586 0
DWIDTH 5 0
BBX 4 4 0 0
BITMAP
F0
30
60
F0
ENDCHAR
STARTCHAR braceleft
ENCODING 123
SWIDTH 381 0
DWIDTH 3 0
BBX 3 8 0 -2
BITMAP
60
40
40
C0
40
40
40
20
ENDCHAR
STARTCHAR bar
ENCODING 124
SWIDTH 217 0
DWIDTH 2 0
BBX 1 8 0 -2
BITMAP
80
80
80
80
80
80
80
80
ENDCHAR
STARTCHAR braceright
ENCODING 125
SWIDTH 381 0
DWIDTH 3 0
BBX 3 8 0 -2
BITMAP
C0
40
40
60
40
40
40
C0
ENDCHAR
STARTCHAR asciitilde
ENCODING 126
SWIDTH 651 0
DWIDTH 5 0
BBX 5 2 0 1
BITMAP
78
F0
ENDCHAR
STARTCHAR exclamdown
ENCODING 161
SWIDTH 268 0
DWIDTH 2 0
BBX 2 6 0 -2
BITMAP
C0
00
C0
C0
C0
C0
ENDCHAR
STARTCHAR cent
ENCODING 162
SWIDTH 434 0
DWIDTH 3 0
BBX 3 6 0 -1
BITMAP
40
60
80
E0
40
40
ENDCHAR
STARTCHAR sterling
ENCODING 163
SWIDTH 675 0
DWIDTH 5 0
BBX 5 6 0 0
BITMAP
38
68
40
E0
40
78
ENDCHAR
STARTCHAR currency
ENCODING 164
SWIDTH 677 0
DWIDTH 5 0
BBX 5 6 0 0
BITMAP
C8
78
C8
C8
78
88
ENDCHAR
STARTCHAR yen
ENCODING 165
SWIDTH 677 0
DWIDTH 5 0
BBX 5 6 0 0
BITMAP
88
D8
70
78
78
20
ENDCHAR
STARTCHAR brokenbar
ENCODING 166
SWIDTH 215 0
DWIDTH 2 0
BBX 1 8 0 -2
BITMAP
80
80
80
00
80
80
80
80
ENDCHAR
STARTCHAR section
ENCODING 167
SWIDTH 560 0
DWIDTH 4 0
BBX 4 8 0 -2
BITMAP
70
D0
70
D0
F0
30
D0
60
ENDCHAR
STARTCHAR dieresis
ENCODING 168
SWIDTH 489 0
DWIDTH 4 0
BBX 4 1 0 5
BITMAP
F0
ENDCHAR
STARTCHAR copyright
ENCODING 169
SWIDTH 711 0
DWIDTH 6 0
BBX 5 5 0 1
BITMAP
78
B8
C8
B8
78
ENDCHAR
STARTCHAR ordfeminine
ENCODING 170
SWIDTH 445 0
DWIDTH 4 0
BBX 3 3 0 3
BITMAP
60
A0
E0
ENDCHAR
STARTCHAR guillemotleft
ENCODING 171
SWIDTH 668 0
DWIDTH 5 0
BBX 5 4 0 0
BITMAP
68
D0
D8
68
ENDCHAR
STARTCHAR logicalnot
ENCODING 172
SWIDTH 526 0
DWIDTH 4 0
BBX 4 3 0 1
BITMAP
F0
F0
10
ENDCHAR
STARTCHAR registered
ENCODING 174
SWIDTH 711 0
DWIDTH 6 0
BBX 5 5 0 1
BITMAP
78
B8
B8
B8
78
ENDCHAR
STARTCHAR degree
ENCODING 176
SWIDTH 407 0
DWIDTH 3 0
BBX 3 3 0 3
BITMAP
E0
A0
40
ENDCHAR
STARTCHAR plusminus
ENCODING 177
SWIDTH 505 0
DWIDTH 4 0
BBX 4 4 0 0
BITMAP
60
F0
20
F0
ENDCHAR
STARTCHAR twosuperior
ENCODING 178
SWIDTH 455 0
DWIDTH 4 0
BBX 4 4 0 2
BITMAP
60
A0
60
F0
ENDCHAR
STARTCHAR threesuperior
ENCODING 179
SWIDTH 457 0
DWIDTH 4 0
BBX 3 4 0 2
BITMAP
60
A0
60
E0
ENDCHAR
STARTCHAR acute
ENCODING 180
SWIDTH 605 0
DWIDTH 5 0
BBX 3 1 1 5
BITMAP
E0
ENDCHAR
STARTCHAR mu
ENCODING 181
SWIDTH 601 0
DWIDTH 5 0
BBX 4 6 0 -2
BITMAP
D0
D0
D0
F0
C0
C0
ENDCHAR
STARTCHAR paragraph
ENCODING 182
SWIDTH 614 0
DWIDTH 5 0
BBX 4 7 0 -2
BITMAP
F0
F0
F0
30
30
30
30
ENDCHAR
STARTCHAR periodcentered
ENCODING 183
SWIDTH 237 0
DWIDTH 2 0
BBX 2 1 0 2
BITMAP
C0
ENDCHAR
STARTCHAR cedilla
ENCODING 184
SWIDTH 559 0
DWIDTH 4 0
BBX 2 2 1 -2
BITMAP
C0
C0
ENDCHAR
STARTCHAR onesuperior
ENCODING 185
SWIDTH 321 0
DWIDTH 3 0
BBX 2 4 0 2
BITMAP
40
C0
40
40
ENDCHAR
STARTCHAR ordmasculine
ENCODING 186
SWIDTH 439 0
DWIDTH 4 0
BBX 3 3 0 3
BITMAP
40
A0
E0
ENDCHAR
STARTCHAR guillemotright
ENCODING 187
SWIDTH 669 0
DWIDTH 5 0
BBX 5 4 0 0
BITMAP
D0
78
58
90
ENDCHAR
STARTCHAR onequarter
ENCODING 188
SWIDTH 786 0
DWIDTH 6 0
BBX 6 6 0 0
BITMAP
C8
50
50
2C
3C
44
ENDCHAR
STARTCHAR onehalf
ENCODING 189
SWIDTH 804 0
DWIDTH 6 0
BBX 6 6 0 0
BITMAP
C8
50
50
3C
2C
5C
ENDCHAR
STARTCHAR threequarters
ENCODING 190
SWIDTH 842 0
DWIDTH 7 0
BBX 6 6 0 0
BITMAP
68
68
F0
1C
2C
44
ENDCHAR
STARTCHAR questiondown
ENCODING 191
SWIDTH 511 0
DWIDTH 4 0
BBX 4 6 0 -2
BITMAP
60
00
60
C0
F0
60
ENDCHAR
STARTCHAR Agrave
ENCODING 192
SWIDTH 765 0
DWIDTH 6 0
BBX 6 8 0 0
BITMAP
20
30
30
30
78
68
7C
C4
ENDCHAR
STARTCHAR Aacute
ENCODING 193
SWIDTH 765 0
DWIDTH 6 0
BBX 6 8 0 0
BITMAP
10
30
30
30
78
68
7C
C4
ENDCHAR
STARTCHAR Acircumflex
ENCODING 194
SWIDTH 765 0
DWIDTH 6 0
BBX 6 8 0 0
BITMAP
70
38
30
30
78
68
7C
C4
ENDCHAR
STARTCHAR Atilde
ENCODING 195
SWIDTH 765 0
DWIDTH 6 0
BBX 6 8 0 0
BITMAP
28
50
30
30
78
68
7C
C4
ENDCHAR
STARTCHAR Adieresis
ENCODING 196
SWIDTH 765 0
DWIDTH 6 0
BBX 6 8 0 0
BITMAP
78
68
30
30
78
68
7C
C4
ENDCHAR
STARTCHAR Aring
ENCODING 197
SWIDTH 765 0
DWIDTH 6 0
BBX 6 7 0 0
BITMAP
30
30
30
78
68
7C
C4
ENDCHAR
STARTCHAR AE
ENCODING 198
SWIDTH 1148 0
DWIDTH 9 0
BBX 9 6 0 0
BITMAP
0F80
1F80
3F00
6F00
7C00
CF80
ENDCHAR
STARTCHAR Ccedilla
ENCODING 199
SWIDTH 679 0
DWIDTH 5 0
BBX 5 8 0 -2
BITMAP
38
78
C0
C0
68
78
10
30
ENDCHAR
STARTCHAR Egrave
ENCODING 200
SWIDTH 638 0
DWIDTH 5 0
BBX 5 8 0 0
BITMAP
20
70
F8
F8
F0
F0
C0
F8
ENDCHAR
STARTCHAR Eacute
ENCODING 201
SWIDTH 638 0
DWIDTH 5 0
BBX 5 8 0 0
BITMAP
10
20
F8
F8
F0
F0
C0
F8
ENDCHAR
STARTCHAR Ecircumflex
ENCODING 202
SWIDTH 638 0
DWIDTH 5 0
BBX 5 8 0 0
BITMAP
30
50
F8
F8
F0
F0
C0
F8
ENDCHAR
STARTCHAR Edieresis
ENCODING 203
SWIDTH 638 0
DWIDTH 5 0
BBX 5 8 0 0
BITMAP
50
50
F8
F8
F0
F0
C0
F8
ENDCHAR
STARTCHAR Igrave
ENCODING 204
SWIDTH 267 0
DWIDTH 2 0
BBX 2 8 0 0
BITMAP
80
C0
C0
C0
C0
C0
C0
C0
ENDCHAR
STARTCHAR Iacute
ENCODING 205
SWIDTH 269 0
DWIDTH 2 0
BBX 3 8 0 0
BITMAP
60
C0
C0
C0
C0
C0
C0
C0
ENDCHAR
STARTCHAR Icircumflex
ENCODING 206
SWIDTH 270 0
DWIDTH 2 0
BBX 4 8 -1 0
BITMAP
E0
70
60
60
60
60
60
60
ENDCHAR
STARTCHAR Idieresis
ENCODING 207
SWIDTH 268 0
DWIDTH 2 0
BBX 4 8 -1 0
BITMAP
F0
D0
60
60
60
60
60
60
ENDCHAR
STARTCHAR Eth
ENCODING 208
SWIDTH 775 0
DWIDTH 6 0
BBX 6 6 0 0
BITMAP
70
7C
4C
E4
4C
78
ENDCHAR
STARTCHAR Ntilde
ENCODING 209
SWIDTH 720 0
DWIDTH 6 0
BBX 5 8 0 0
BITMAP
30
50
C8
E8
E8
F8
D8
C8
ENDCHAR
STARTCHAR Ograve
ENCODING 210
SWIDTH 775 0
DWIDTH 6 0
BBX 6 8 0 0
BITMAP
20
30
38
7C
CC
C4
4C
78
ENDCHAR
STARTCHAR Oacute
ENCODING 211
SWIDTH 775 0
DWIDTH 6 0
BBX 6 8 0 0
BITMAP
10
30
38
7C
CC
C4
4C
78
ENDCHAR
STARTCHAR Ocircumflex
ENCODING 212
SWIDTH 775 0
DWIDTH 6 0
BBX 6 8 0 0
BITMAP
30
38
38
7C
CC
C4
4C
78
ENDCHAR
STARTCHAR Otilde
ENCODING 213
SWIDTH 775 0
DWIDTH 6 0
BBX 6 8 0 0
BITMAP
38
30
38
7C
CC
C4
4C
78
ENDCHAR
STARTCHAR Odieresis
ENCODING 214
SWIDTH 775 0
DWIDTH 6 0
BBX 6 8 0 0
BITMAP
78
68
38
7C
CC
C4
4C
78
ENDCHAR
STARTCHAR multiply
ENCODING 215
SWIDTH 521 0
DWIDTH 4 0
BBX 4 4 0 0
BITMAP
D0
60
70
90
ENDCHAR
STARTCHAR Oslash
ENCODING 216
SWIDTH 775 0
DWIDTH 6 0
BBX 6 6 0 0
BITMAP
38
7C
DC
F4
6C
78
ENDCHAR
STARTCHAR Ugrave
ENCODING 217
SWIDTH 726 0
DWIDTH 6 0
BBX 5 8 0 0
BITMAP
40
30
C8
C8
C8
C8
48
78
ENDCHAR
STARTCHAR Uacute
ENCODING 218
SWIDTH 726 0
DWIDTH 6 0
BBX 5 8 0 0
BITMAP
10
30
C8
C8
C8
C8
48
78
ENDCHAR
STARTCHAR Ucircumflex
ENCODING 219
SWIDTH 726 0
DWIDTH 6 0
BBX 5 8 0 0
BITMAP
30
78
C8
C8
C8
C8
48
78
ENDCHAR
STARTCHAR Udieresis
ENCODING 220
SWIDTH 726 0
DWIDTH 6 0
BBX 5 8 0 0
BITMAP
78
58
C8
C8
C8
C8
48
78
ENDCHAR
STARTCHAR Yacute
ENCODING 221
SWIDTH 686 0
DWIDTH 5 0
BBX 5 8 0 0
BITMAP
10
20
C8
D8
70
30
20
20
ENDCHAR
STARTCHAR Thorn
ENCODING 222
SWIDTH 634 0
DWIDTH 5 0
BBX 5 6 0 0
BITMAP
C0
F0
D8
D8
F0
C0
ENDCHAR
STARTCHAR germandbls
ENCODING 223
SWIDTH 633 0
DWIDTH 5 0
BBX 5 6 0 0
BITMAP
70
D0
F0
D0
C8
F8
ENDCHAR
STARTCHAR agrave
ENCODING 224
SWIDTH 596 0
DWIDTH 5 0
BBX 4 6 0 0
BITMAP
70
00
70
D0
D0
70
ENDCHAR
STARTCHAR aacute
ENCODING 225
SWIDTH 596 0
DWIDTH 5 0
BBX 4 6 0 0
BITMAP
70
00
70
D0
D0
70
ENDCHAR
STARTCHAR acircumflex
ENCODING 226
SWIDTH 596 0
DWIDTH 5 0
BBX 4 6 0 0
BITMAP
70
00
70
D0
D0
70
ENDCHAR
STARTCHAR atilde
ENCODING 227
SWIDTH 596 0
DWIDTH 5 0
BBX 4 6 0 0
BITMAP
70
00
70
D0
D0
70
ENDCHAR
STARTCHAR adieresis
ENCODING 228
SWIDTH 596 0
DWIDTH 5 0
BBX 4 6 0 0
BITMAP
50
00
70
D0
D0
70
ENDCHAR
STARTCHAR aring
ENCODING 229
SWIDTH 596 0
DWIDTH 5 0
BBX 4 6 0 0
BITMAP
20
20
70
D0
D0
70
ENDCHAR
STARTCHAR ae
ENCODING 230
SWIDTH 910 0
DWIDTH 7 0
BBX 7 4 0 0
BITMAP
FE
5E
F0
EE
ENDCHAR
STARTCHAR ccedilla
ENCODING 231
SWIDTH 524 0
DWIDTH 4 0
BBX 4 6 0 -2
BITMAP
70
C0
D0
70
20
20
ENDCHAR
STARTCHAR egrave
ENCODING 232
SWIDTH 573 0
DWIDTH 5 0
BBX 4 6 0 0
BITMAP
60
00
70
F0
C0
70
ENDCHAR
STARTCHAR eacute
ENCODING 233
SWIDTH 573 0
DWIDTH 5 0
BBX 4 6 0 0
BITMAP
70
00
70
F0
C0
70
ENDCHAR
STARTCHAR ecircumflex
ENCODING 234
SWIDTH 573 0
DWIDTH 5 0
BBX 4 6 0 0
BITMAP
70
00
70
F0
C0
70
ENDCHAR
STARTCHAR edieresis
ENCODING 235
SWIDTH 573 0
DWIDTH 5 0
BBX 4 6 0 0
BITMAP
50
00
70
F0
C0
70
ENDCHAR
STARTCHAR igrave
ENCODING 236
SWIDTH 255 0
DWIDTH 2 0
BBX 2 6 0 0
BITMAP
C0
00
C0
C0
C0
C0
ENDCHAR
STARTCHAR iacute
ENCODING 237
SWIDTH 255 0
DWIDTH 2 0
BBX 2 6 0 0
BITMAP
C0
00
C0
C0
C0
C0
ENDCHAR
STARTCHAR icircumflex
ENCODING 238
SWIDTH 255 0
DWIDTH 2 0
BBX 4 6 -1 0
BITMAP
F0
00
60
60
60
60
ENDCHAR
STARTCHAR idieresis
ENCODING 239
SWIDTH 255 0
DWIDTH 2 0
BBX 4 6 -1 0
BITMAP
F0
00
60
60
60
60
ENDCHAR
STARTCHAR eth
ENCODING 240
SWIDTH 585 0
DWIDTH 5 0
BBX 4 6 0 0
BITMAP
60
50
70
D0
D0
70
ENDCHAR
STARTCHAR ntilde
ENCODING 241
SWIDTH 606 0
DWIDTH 5 0
BBX 5 6 0 0
BITMAP
70
00
F0
D8
D8
D8
ENDCHAR
STARTCHAR ograve
ENCODING 242
SWIDTH 600 0
DWIDTH 5 0
BBX 5 6 0 0
BITMAP
70
00
70
D8
D8
70
ENDCHAR
STARTCHAR oacute
ENCODING 243
SWIDTH 600 0
DWIDTH 5 0
BBX 5 6 0 0
BITMAP
70
00
70
D8
D8
70
ENDCHAR
STARTCHAR ocircumflex
ENCODING 244
SWIDTH 600 0
DWIDTH 5 0
BBX 5 6 0 0
BITMAP
70
00
70
D8
D8
70
ENDCHAR
STARTCHAR otilde
ENCODING 245
SWIDTH 600 0
DWIDTH 5 0
BBX 5 6 0 0
BITMAP
70
00
70
D8
D8
70
ENDCHAR
STARTCHAR odieresis
ENCODING 246
SWIDTH 600 0
DWIDTH 5 0
BBX 5 6 0 0
BITMAP
50
00
70
D8
D8
70
ENDCHAR
STARTCHAR divide
ENCODING 247
SWIDTH 503 0
DWIDTH 4 0
BBX 4 4 0 0
BITMAP
60
F0
00
60
ENDCHAR
STARTCHAR oslash
ENCODING 248
SWIDTH 600 0
DWIDTH 5 0
BBX 5 6 0 -1
BITMAP
10
70
D8
D8
70
C0
ENDCHAR
STARTCHAR ugrave
ENCODING 249
SWIDTH 606 0
DWIDTH 5 0
BBX 5 6 0 0
BITMAP
70
00
D8
D8
D8
78
ENDCHAR
STARTCHAR uacute
ENCODING 250
SWIDTH 606 0
DWIDTH 5 0
BBX 5 6 0 0
BITMAP
30
00
D8
D8
D8
78
ENDCHAR
STARTCHAR ucircumflex
ENCODING 251
SWIDTH 606 0
DWIDTH 5 0
BBX 5 6 0 0
BITMAP
70
00
D8
D8
D8
78
ENDCHAR
STARTCHAR udieresis
ENCODING 252
SWIDTH 606 0
DWIDTH 5 0
BBX 5 6 0 0
BITMAP
50
00
D8
D8
D8
78
ENDCHAR
STARTCHAR yacute
ENCODING 253
SWIDTH 604 0
DWIDTH 5 0
BBX 5 8 0 -2
BITMAP
70
00
D8
50
70
20
60
40
ENDCHAR
STARTCHAR thorn
ENCODING 254
SWIDTH 580 0
DWIDTH 5 0
BBX 4 8 0 -2
BITMAP
C0
C0
F0
D0
D0
F0
C0
C0
ENDCHAR
STARTCHAR ydieresis
ENCODING 255
SWIDTH 604 0
DWIDTH 5 0
BBX 5 8 0 -2
BITMAP
50
00
D8
50
70
20
60
40
ENDCHAR
STARTCHAR dotlessi
ENCODING 305
SWIDTH 255 0
DWIDTH 2 0
BBX 2 4 0 0
BITMAP
C0
C0
C0
C0
ENDCHAR
STARTCHAR Lslash
ENCODING 321
SWIDTH 687 0
DWIDTH 6 0
BBX 5 6 0 0
BITMAP
60
60
70
E0
60
78
ENDCHAR
STARTCHAR lslash
ENCODING 322
SWIDTH 468 0
DWIDTH 4 0
BBX 4 6 0 0
BITMAP
40
40
70
C0
40
60
ENDCHAR
STARTCHAR OE
ENCODING 338
SWIDTH 1092 0
DWIDTH 9 0
BBX 9 6 0 0
BITMAP
3F80
7F00
CF00
CF00
6800
7F80
ENDCHAR
STARTCHAR oe
ENCODING 339
SWIDTH 944 0
DWIDTH 8 0
BBX 7 4 0 0
BITMAP
7E
DE
D8
7E
ENDCHAR
STARTCHAR Scaron
ENCODING 352
SWIDTH 583 0
DWIDTH 5 0
BBX 4 8 0 0
BITMAP
50
20
70
D0
E0
30
D0
70
ENDCHAR
STARTCHAR scaron
ENCODING 353
SWIDTH 489 0
DWIDTH 4 0
BBX 4 6 0 0
BITMAP
E0
00
F0
E0
30
E0
ENDCHAR
STARTCHAR Ydieresis
ENCODING 376
SWIDTH 686 0
DWIDTH 5 0
BBX 5 8 0 0
BITMAP
58
50
C8
D8
70
30
20
20
ENDCHAR
STARTCHAR Zcaron
ENCODING 381
SWIDTH 643 0
DWIDTH 5 0
BBX 5 8 0 0
BITMAP
50
20
F8
78
30
60
40
F8
ENDCHAR
STARTCHAR zcaron
ENCODING 382
SWIDTH 586 0
DWIDTH 5 0
BBX 4 6 0 0
BITMAP
70
00
F0
30
60
F0
ENDCHAR
STARTCHAR florin
ENCODING 402
SWIDTH 529 0
DWIDTH 4 0
BBX 4 8 0 -2
BITMAP
30
20
70
60
60
60
C0
C0
ENDCHAR
STARTCHAR circumflex
ENCODING 710
SWIDTH 603 0
DWIDTH 5 0
BBX 3 1 1 5
BITMAP
E0
ENDCHAR
STARTCHAR caron
ENCODING 711
SWIDTH 600 0
DWIDTH 5 0
BBX 3 1 1 5
BITMAP
E0
ENDCHAR
STARTCHAR dotaccent
ENCODING 729
SWIDTH 285 0
DWIDTH 2 0
BBX 2 1 0 6
BITMAP
C0
ENDCHAR
STARTCHAR ring
ENCODING 730
SWIDTH 378 0
DWIDTH 3 0
BBX 3 2 0 5
BITMAP
E0
40
ENDCHAR
STARTCHAR ogonek
ENCODING 731
SWIDTH 570 0
DWIDTH 5 0
BBX 2 2 1 -2
BITMAP
C0
40
ENDCHAR
STARTCHAR tilde
ENCODING 732
SWIDTH 584 0
DWIDTH 5 0
BBX 3 1 1 5
BITMAP
E0
ENDCHAR
STARTCHAR endash
ENCODING 8211
SWIDTH 561 0
DWIDTH 4 0
BBX 4 1 0 2
BITMAP
F0
ENDCHAR
STARTCHAR emdash
ENCODING 8212
SWIDTH 693 0
DWIDTH 6 0
BBX 5 1 0 2
BITMAP
F8
ENDCHAR
STARTCHAR quoteleft
ENCODING 8216
SWIDTH 237 0
DWIDTH 2 0
BBX 2 3 0 3
BITMAP
40
80
C0
ENDCHAR
STARTCHAR quoteright
ENCODING 8217
SWIDTH 237 0
DWIDTH 2 0
BBX 2 3 0 3
BITMAP
C0
C0
80
ENDCHAR
STARTCHAR quotesinglbase
ENCODING 8218
SWIDTH 237 0
DWIDTH 2 0
BBX 2 2 0 -1
BITMAP
C0
C0
ENDCHAR
STARTCHAR quotedblleft
ENCODING 8220
SWIDTH 482 0
DWIDTH 4 0
BBX 4 3 0 3
BITMAP
50
A0
F0
ENDCHAR
STARTCHAR quotedblright
ENCODING 8221
SWIDTH 482 0
DWIDTH 4 0
BBX 4 3 0 3
BITMAP
F0
F0
A0
ENDCHAR
STARTCHAR quotedblbase
ENCODING 8222
SWIDTH 482 0
DWIDTH 4 0
BBX 4 2 0 -1
BITMAP
F0
E0
ENDCHAR
STARTCHAR dagger
ENCODING 8224
SWIDTH 527 0
DWIDTH 4 0
BBX 4 8 0 -2
BITMAP
60
60
F0
60
60
60
60
20
ENDCHAR
STARTCHAR daggerdbl
ENCODING 8225
SWIDTH 527 0
DWIDTH 4 0
BBX 4 8 0 -2
BITMAP
60
60
F0
60
F0
F0
60
20
ENDCHAR
STARTCHAR bullet
ENCODING 8226
SWIDTH 342 0
DWIDTH 3 0
BBX 3 3 0 1
BITMAP
40
E0
40
ENDCHAR
STARTCHAR ellipsis
ENCODING 8230
SWIDTH 911 0
DWIDTH 7 0
BBX 7 1 0 0
BITMAP
D2
ENDCHAR
STARTCHAR perthousand
ENCODING 8240
SWIDTH 1223 0
DWIDTH 10 0
BBX 9 6 0 0
BITMAP
6800
A800
7000
1D80
2D80
6D80
ENDCHAR
STARTCHAR guilsinglleft
ENCODING 8249
SWIDTH 383 0
DWIDTH 3 0
BBX 3 4 0 0
BITMAP
60
C0
C0
60
ENDCHAR
STARTCHAR guilsinglright
ENCODING 8250
SWIDTH 383 0
DWIDTH 3 0
BBX 3 4 0 0
BITMAP
C0
60
60
C0
ENDCHAR
STARTCHAR fraction
ENCODING 8260
SWIDTH 433 0
DWIDTH 3 0
BBX 4 6 0 0
BITMAP
10
10
20
40
40
80
ENDCHAR
STARTCHAR Euro
ENCODING 8364
SWIDTH 612 0
DWIDTH 5 0
BBX 5 6 0 0
BITMAP
78
40
F0
F0
60
38
ENDCHAR
STARTCHAR trademark
ENCODING 8482
SWIDTH 840 0
DWIDTH 7 0
BBX 6 3 0 2
BITMAP
F4
5C
54
ENDCHAR
STARTCHAR minus
ENCODING 8722
SWIDTH 581 0
DWIDTH 5 0
BBX 4 1 0 2
BITMAP
F0
ENDCHAR
STARTCHAR f_f
ENCODING 64256
SWIDTH 803 0
DWIDTH 6 0
BBX 6 6 0 0
BITMAP
6C
48
FC
48
48
48
ENDCHAR
STARTCHAR fi
ENCODING 64257
SWIDTH 709 0
DWIDTH 6 0
BBX 5 6 0 0
BITMAP
68
40
E8
48
48
48
ENDCHAR
STARTCHAR fl
ENCODING 64258
SWIDTH 774 0
DWIDTH 6 0
BBX 6 6 0 0
BITMAP
68
48
E8
48
48
4C
ENDCHAR
STARTCHAR f_f_i
ENCODING 64259
SWIDTH 1059 0
DWIDTH 8 0
BBX 8 6 0 0
BITMAP
6D
48
FD
49
49
49
ENDCHAR
STARTCHAR .notdef
ENCODING -1
SWIDTH 500 0
DWIDTH 4 0
BBX 1 1 0 0
BITMAP
00
ENDCHAR
STARTCHAR .null
ENCODING -1
SWIDTH 0 0
DWIDTH 0 0
BBX 1 1 0 0
BITMAP
00
ENDCHAR
STARTCHAR nonmarkingreturn
ENCODING -1
SWIDTH 333 0
DWIDTH 3 0
BBX 1 1 0 0
BITMAP
00
ENDCHAR
STARTCHAR f_t
ENCODING -1
SWIDTH 814 0
DWIDTH 7 0
BBX 6 6 0 0
BITMAP
68
48
FC
48
48
4C
ENDCHAR
STARTCHAR t_t
ENCODING -1
SWIDTH 794 0
DWIDTH 6 0
BBX 6 6 0 0
BITMAP
48
48
FC
48
48
6C
ENDCHAR
STARTCHAR l_l
ENCODING -1
SWIDTH 626 0
DWIDTH 5 0
BBX 5 6 0 0
BITMAP
F0
F0
F0
F0
F0
58
ENDCHAR
STARTCHAR j_j
ENCODING -1
SWIDTH 521 0
DWIDTH 4 0
BBX 5 8 -1 -2
BITMAP
78
00
78
78
78
78
F8
D0
ENDCHAR
ENDFONT
